<svg width="679" height="507" viewBox="0 0 679 507" fill="none" xmlns="http://www.w3.org/2000/svg">
<mask id="mask0_313_45" style="mask-type:alpha" maskUnits="userSpaceOnUse" x="0" y="0" width="679" height="507">
<path d="M328.3 0.568787C301.633 3.50214 278.167 15.2355 269.1 30.0355C265.633 35.6355 254.3 44.0355 248.7 45.1021C242.433 46.3021 235.9 53.3688 234.833 60.4355L234.033 65.6355L226.7 62.3021C220.433 59.3688 218.167 58.9688 211.5 59.7688C205.633 60.3021 203.633 60.1688 203.633 58.8354C203.633 54.1688 193.767 37.1021 187.233 30.5688C173.633 16.9688 156.3 10.7021 132.967 10.7021C107.9 10.7021 88.1666 17.9021 72.4333 32.7021C57.2333 46.9688 52.1666 59.5021 53.3666 80.1688C53.7666 86.9688 53.5 92.8354 52.8333 93.2354C52.3 93.6355 51.1 96.4355 50.1666 99.5021C49.2333 103.102 46.7 107.102 42.9666 110.702C38.9666 114.435 36.7 118.169 35.6333 122.035C34.8333 125.235 33.6333 129.235 32.9666 130.969C32.1666 132.702 31.6333 136.969 31.6333 140.435C31.6333 143.902 30.4333 150.302 28.8333 154.702C24.5666 167.102 24.0333 179.369 27.5 190.702L30.4333 200.302L25.3666 222.035C20.9666 241.502 20.3 245.902 20.3 261.902C20.3 278.969 20.4333 280.302 24.0333 287.502C26.1666 291.769 29.7666 296.835 32.1666 298.835C35.7666 301.902 36.8333 304.169 38.1666 311.235C41.2333 327.235 52.0333 346.969 73.2333 375.635C79.2333 383.502 83.7666 390.169 83.5 390.435C83.2333 390.569 80.3 391.502 76.9666 392.435C66.3 395.369 47.9 403.235 38.1666 408.835C26.8333 415.369 13.3666 427.502 7.89998 436.302C-4.36669 455.502 -2.23336 477.502 13.5 492.302C21.6333 499.902 29.6333 504.035 40.3 506.035C49.9 507.769 58.0333 506.969 87.6333 500.835C109.767 496.435 112.433 496.169 139.633 495.902C163.633 495.769 169.233 495.369 173.633 493.502C181.233 490.035 183.633 487.502 183.633 482.302C183.633 471.635 172.167 467.902 140.3 468.035C116.7 468.035 109.367 468.969 76.5666 475.369C54.8333 479.635 45.7666 480.169 39.1 477.369C29.1 473.235 24.5666 458.435 30.0333 447.635C34.9666 438.035 49.7666 426.969 70.0333 417.902L78.5666 413.902L77.6333 418.969C77.2333 421.635 76.7 426.569 76.5666 429.769C76.3 434.702 76.8333 436.035 80.0333 438.302C83.5 440.969 83.9 441.102 90.7 438.969C94.4333 437.635 100.567 436.435 104.167 435.902C108.167 435.502 111.9 434.169 113.633 432.569C115.367 430.969 118.3 429.902 121.233 429.902C124.167 429.902 127.9 428.569 131.1 426.435C136.833 422.569 138.833 420.035 142.967 411.902C144.433 408.835 146.833 406.302 148.3 406.035C150.967 405.635 150.833 405.635 148.167 408.702C139.233 418.702 140.567 430.702 150.967 433.369C152.833 433.769 154.3 434.969 154.3 435.902C154.3 439.102 159.767 444.435 164.7 446.035C167.367 446.835 170.967 448.702 172.7 450.035C174.967 451.769 178.167 452.302 186.433 452.302C198.433 452.302 204.033 449.635 207.633 442.569C209.633 438.569 209.633 438.702 210.3 448.835C210.967 457.502 211.767 460.169 215.1 464.835C226.033 480.569 253.9 490.569 295.633 493.902C316.3 495.502 414.967 493.502 424.967 491.235C438.967 488.035 444.967 483.235 444.967 475.235C444.967 469.102 442.7 465.902 436.3 463.102C429.633 460.169 409.233 457.902 397.5 458.702C325.633 463.769 291.367 464.035 269.367 459.902C249.9 456.169 240.967 448.835 243.767 438.835C244.433 436.169 245.633 433.902 246.433 433.902C247.233 433.902 247.367 434.569 246.967 435.235C245.367 437.902 249.1 445.902 252.833 447.902C254.833 448.835 261.1 450.169 266.567 450.702C274.833 451.369 277.233 451.235 279.767 449.369C281.5 448.169 284.833 447.235 287.1 447.235C289.367 447.235 293.233 445.902 295.767 444.169C299.5 441.769 300.967 441.369 303.9 442.435C311.9 445.235 323.9 438.569 326.433 429.769C327.9 424.969 327.767 423.902 323.9 416.435C317.633 404.302 318.167 403.769 339.5 403.635C356.433 403.502 356.7 403.502 357.5 406.569C358.033 408.569 357.1 411.769 354.967 415.502C350.3 423.502 350.567 429.902 355.633 435.769C360.433 441.235 367.367 443.902 373.633 442.702C376.833 442.035 379.367 442.569 382.567 444.569C384.967 446.035 388.967 447.235 391.367 447.235C393.767 447.235 397.233 448.302 399.1 449.502C402.167 451.502 404.033 451.502 414.033 450.302C424.033 449.102 425.9 448.435 428.7 445.102C433.1 440.035 432.167 431.769 426.033 419.769C419.633 407.369 418.967 403.635 421.633 393.635C422.7 389.102 423.9 385.235 424.167 384.969C424.433 384.702 428.433 388.302 433.233 392.835C438.967 398.435 443.633 404.569 446.967 410.969C449.767 416.302 456.033 425.102 460.833 430.302C465.767 435.635 470.567 441.635 471.633 443.635C474.7 449.769 480.3 452.302 491.633 452.302C498.7 452.302 502.567 451.769 504.967 450.169C506.833 448.969 510.967 447.102 514.3 445.902C518.967 444.435 520.967 442.702 522.967 438.835C524.433 436.035 526.967 433.502 528.7 433.102C530.3 432.569 532.833 430.702 534.3 428.969C538.7 423.235 537.5 417.102 530.567 409.502C527.233 406.035 527.233 405.902 530.033 405.902C532.167 405.902 533.767 407.769 536.567 413.502C541.633 423.502 548.167 428.702 556.967 429.635C560.567 429.902 563.633 430.835 563.633 431.502C563.633 433.502 572.433 436.569 578.167 436.569C580.967 436.569 585.1 437.502 587.1 438.569C592.567 441.369 596.567 441.102 600.3 437.235C604.167 433.502 604.433 430.702 601.5 421.769C600.3 418.169 599.633 414.835 600.033 414.435C600.3 414.035 605.767 416.169 611.9 419.102C641.633 433.235 655.367 448.302 651.5 462.569C649.367 470.169 646.7 473.502 640.033 476.702C634.7 479.235 632.7 479.502 622.433 478.835C616.167 478.302 606.433 476.702 600.967 475.235C565.9 465.769 518.433 464.702 502.033 473.102C497.1 475.502 496.3 476.569 495.9 480.702C495.367 486.969 499.5 492.035 506.7 494.169C510.3 495.235 522.833 495.769 541.633 495.902C570.7 496.035 571.233 496.169 592.967 501.102C631.5 510.035 648.567 508.169 664.833 493.102C675.233 483.635 678.833 475.369 678.967 461.902C678.967 453.369 678.3 450.569 674.7 442.969C664.967 422.302 638.7 403.502 606.033 393.635C600.3 391.902 595.633 390.169 595.633 389.635C595.633 389.235 599.1 384.035 603.367 378.302C630.033 342.302 640.967 320.835 640.967 304.302C640.967 297.102 641.5 295.769 645.633 290.835C651.367 284.169 654.3 274.835 654.3 263.369C654.3 253.102 652.3 243.235 644.967 216.702C638.033 191.369 636.033 176.969 634.3 140.835C632.433 100.835 629.367 85.5021 620.3 71.1021C618.433 68.1688 615.633 61.9021 614.167 57.1021C605.633 29.5021 573.1 9.90213 535.633 9.90213C502.033 9.90213 475.767 25.1021 466.833 49.7688C462.033 62.5688 456.567 74.7021 453.367 78.9688C448.7 85.2354 446.3 91.6355 446.167 98.8354C446.033 105.235 446.033 105.235 444.967 100.569C443.5 94.4355 443.233 84.5688 444.433 73.7688C444.967 67.9021 444.7 63.2355 443.633 59.7688C441.233 52.4355 434.833 46.0355 428.7 44.9688C424.433 44.3021 421.1 41.6355 408.567 29.3688C396.833 17.6355 391.5 13.3688 384.033 9.63547C368.7 1.90213 347.5 -1.43121 328.3 0.568787ZM366.3 9.3688C371.1 10.4355 378.033 12.9688 381.633 15.1021C388.7 19.1021 402.3 30.7021 402.3 32.7021C402.3 34.7021 395.367 31.3688 388.3 26.0355C377.9 18.1688 371.5 15.5021 358.033 13.1021C328.567 7.90213 298.433 14.3021 285.1 28.5688C283.233 30.5688 280.167 32.5688 278.433 32.9688L275.367 33.7688L278.433 30.3021C291.633 15.7688 305.233 9.23547 327.633 6.70212C335.5 5.90213 357.1 7.3688 366.3 9.3688ZM522.3 18.4355C522.3 18.7021 516.433 21.7688 509.367 25.2355C498.833 30.4355 494.433 33.5021 486.567 41.3688C476.167 51.9021 472.7 53.9021 476.567 47.1021C480.567 39.9021 490.833 30.3021 498.433 26.4355C507.5 21.9021 522.3 16.8354 522.3 18.4355ZM159.233 22.1688C172.7 27.1021 181.633 34.0355 188.833 44.7021C194.967 53.9021 199.233 67.7688 196.833 70.7021C194.3 73.9021 193.367 72.8354 192.567 65.7688C190.567 49.6355 178.433 35.2355 158.033 25.2355C145.1 18.9688 145.767 17.1021 159.233 22.1688ZM308.567 33.3688C308.833 34.3021 305.5 35.1021 299.233 35.6355C289.1 36.3021 282.967 38.7021 274.433 45.1021C268.567 49.5021 270.167 49.6355 276.7 45.2355C285.233 39.6355 292.7 37.6355 306.3 37.5021C317.633 37.2355 319.5 37.6355 323.367 40.3021C330.3 45.3688 328.967 46.7021 317.767 46.1688C302.7 45.3688 293.767 47.7688 287.5 54.1688C280.7 61.2355 280.833 63.1021 288.033 58.7021C300.167 51.1021 305.1 49.3688 316.3 49.3688C329.1 49.3688 334.967 51.6355 334.967 56.5688C334.967 60.1688 335.367 60.1688 322.167 58.4355C317.1 57.7688 314.7 58.3021 309.1 61.1021C302.033 64.5688 292.567 71.2355 293.367 72.0355C293.633 72.3021 299.1 70.4355 305.633 67.7688C320.433 61.6355 326.7 60.7021 330.3 63.9021C331.767 65.2355 332.967 67.6355 332.967 69.1021C332.833 71.7688 332.7 71.6355 330.967 68.5688L329.1 65.2355L328.967 68.7021C328.967 73.2355 325.767 75.9021 315.767 79.9021C308.567 82.7021 305.233 85.2354 291.9 98.9688C273.767 117.502 267.233 121.369 256.967 120.169L250.567 119.369L253.233 125.635C255.767 131.102 255.9 133.369 255.1 146.569C254.033 166.302 251.1 182.435 245.633 198.702C240.833 213.235 230.567 234.969 227.233 237.769C223.767 240.569 220.433 234.035 221.233 225.902C222.167 216.169 220.167 219.102 218.3 230.169C216.3 242.035 217.233 252.569 220.967 258.835C224.433 264.835 223.5 266.035 219.633 260.569C209.5 246.435 210.7 229.902 225.5 175.235C236.7 134.035 239.367 121.102 241.1 100.835C241.767 91.5021 243.1 81.2354 243.9 77.9021C247.367 63.3688 261.5 43.1021 271.767 37.7688C282.433 32.4355 307.233 29.3688 308.567 33.3688ZM391.767 33.2355C409.5 36.9688 420.3 46.0355 429.767 65.2355C434.433 74.8354 435.233 78.7021 438.3 109.502C439.5 122.435 441.233 129.769 456.967 189.235C463.633 214.569 464.033 216.835 464.167 233.235C464.3 248.702 464.033 251.235 461.367 256.035C459.767 258.969 457.367 262.302 456.167 263.369C454.433 264.702 454.567 263.769 456.967 259.902C460.033 255.102 460.3 253.235 460.167 239.902C460.167 231.769 459.5 223.769 458.567 221.902C457.233 218.969 457.1 219.369 457.233 225.902C457.367 234.435 455.233 239.502 452.167 238.302C449.767 237.369 438.7 215.635 433.767 201.902C428.7 188.169 425.367 170.969 423.5 151.235C422.167 135.635 422.3 134.035 424.833 126.835L427.5 119.102L424.567 120.035C413.767 123.502 402.567 116.569 380.7 93.2354C372.3 84.3021 369.367 82.1688 363.1 80.0355C353.367 76.7021 348.433 72.3021 349.367 67.7688C350.033 63.9021 348.167 65.2355 347.367 69.2355C346.7 71.7688 346.7 71.7688 345.633 69.3688C344.833 67.5021 345.367 66.1688 347.767 64.1688C352.033 60.7021 359.367 61.7688 373.5 67.9021C379.367 70.4355 384.433 72.3021 384.7 71.9021C385.5 71.1021 374.167 63.2355 368.3 60.4355C362.033 57.5021 355.633 57.2355 349.367 59.5021C345.5 60.8354 344.567 60.8354 343.633 59.2355C340.7 54.5688 344.033 51.5021 354.033 49.7688C366.167 47.6355 376.567 49.7688 387.233 56.7021C391.9 59.7688 396.033 62.0355 396.3 61.6355C397.367 60.5688 388.7 51.2355 384.567 48.9688C381.367 47.2355 376.7 46.7021 365.367 46.5688C357.1 46.5688 350.3 46.1688 350.3 45.7688C350.3 45.3688 352.033 43.3688 354.167 41.3688C358.967 36.8354 365.5 35.7688 379.633 37.6355C389.9 38.9688 395.367 40.8354 403.633 45.9021L408.3 48.8354L404.967 45.9021C398.833 40.5688 388.833 36.3021 380.433 35.6355C370.567 34.8354 368.567 34.3021 369.633 32.5688C370.833 30.5688 380.7 30.9688 391.767 33.2355ZM137.1 43.5021C143.9 45.5021 152.3 52.8354 155.767 59.6355C160.833 69.5021 159.1 85.5021 151.9 95.1021C148.7 99.5021 148.567 99.6355 150.967 104.435C153.5 109.635 155.367 127.235 153.5 127.235C152.833 127.235 150.567 123.902 148.433 119.902C139.9 103.502 120.7 90.1688 107.9 91.7688C99.9 92.8354 98.3 92.8354 86.7 92.5688C74.4333 92.1688 66.4333 95.6355 61.2333 103.769C57.9 108.969 57.6333 109.102 57.2333 105.902C56.7 102.569 60.4333 93.9021 62.4333 93.9021C62.9666 93.9021 62.8333 91.6355 62.0333 88.9688C60.0333 81.5021 61.2333 60.9688 64.0333 58.3021C67.5 54.8354 79.1 54.5688 87.5 57.7688L94.7 60.4355L102.033 53.7688C113.767 43.5021 125.5 39.9021 137.1 43.5021ZM552.833 47.5021C556.167 49.1021 562.033 53.5021 565.767 57.1021L572.7 63.9021L578.3 59.9021C585.767 54.4355 596.3 54.1688 601.633 59.2355C609.5 66.5688 613.1 80.1688 610.567 93.2354C609.367 99.2354 609.5 100.302 612.7 105.902C617.9 114.569 617.767 128.569 612.7 139.635C608.033 149.635 597.5 160.569 588.033 165.235C581.5 168.569 578.7 169.102 569.5 169.235C559.767 169.235 557.9 168.835 548.833 164.302C537.1 158.435 528.3 150.435 524.567 142.035C520.833 133.902 520.967 119.902 524.7 110.302L527.367 103.369L522.967 100.035C517.367 95.7688 513.1 86.8354 512.833 79.2355C512.7 72.5688 514.833 60.4355 516.833 56.8354C519.1 52.7021 527.1 45.7688 531.1 44.5688C536.567 42.8354 545.767 44.0355 552.833 47.5021ZM505.767 47.2355C509.233 50.7021 505.9 56.8354 495.5 66.9688C484.833 77.2355 481.9 82.0355 480.433 92.5688C479.5 98.5688 479.5 98.5688 484.567 88.7021C487.233 83.2354 492.7 75.3688 496.567 71.3688L503.633 63.9021L506.3 67.1021C507.767 68.8354 508.967 71.7688 508.967 73.6355C508.967 78.7021 504.167 87.6355 497.633 94.9688L491.767 101.502L494.433 116.702C498.3 138.035 498.7 142.569 497.767 146.569C495.5 155.502 490.3 141.102 490.3 126.169C490.3 121.902 489.633 117.769 488.7 116.835C487.767 115.902 484.433 115.235 480.967 115.235C472.033 115.235 466.167 113.102 460.567 108.035C454.7 102.702 454.567 100.702 462.833 129.902L468.3 149.235L468.167 176.569C468.033 191.635 467.367 205.369 466.7 207.102C465.9 209.235 465.5 200.969 465.5 181.769L465.633 153.235L459.767 136.569C454.567 121.902 453.767 118.169 453.233 105.769C452.7 94.4355 453.1 90.8354 454.833 87.5021C457.767 81.9021 458.833 82.0355 457.9 87.9021C456.7 95.6355 457.9 93.2354 461.633 80.8354C463.633 74.4355 466.033 67.6355 467.1 65.6355C472.033 56.0355 484.3 46.5688 490.567 47.5021C492.7 47.7688 491.233 49.3688 483.9 54.8354C472.033 63.7688 467.5 71.9021 466.833 86.3021L466.3 95.9021L469.367 85.1021C472.967 72.5688 474.7 69.3688 484.833 58.7021C495.633 47.3688 502.3 43.7688 505.767 47.2355ZM254.3 50.7021C254.3 51.1021 252.7 53.5021 250.833 55.9021C248.967 58.4355 245.9 63.9021 244.3 68.1688C241.9 74.0355 240.833 75.2355 240.167 73.5021C239.1 70.7021 240.433 61.3688 242.433 57.6355C244.433 54.0355 254.3 48.1688 254.3 50.7021ZM429.767 51.9021C435.367 54.1688 438.3 60.3021 438.3 69.2355C438.3 75.9021 436.433 76.3021 434.967 69.9021C434.567 67.7688 431.767 62.4355 428.967 57.9021C426.033 53.5021 424.033 49.9021 424.433 49.9021C424.7 49.9021 427.1 50.8354 429.767 51.9021ZM342.567 67.1021C342.167 70.4355 342.833 72.0355 346.167 75.1021C348.567 77.2355 352.567 79.7688 355.367 80.7021C368.3 84.8354 377.5 92.9688 383.1 105.102C386.167 111.902 386.567 114.035 386.033 123.102C385.633 131.102 384.567 134.835 381.633 140.302C373.633 154.969 359.5 163.369 341.633 164.302C316.833 165.502 297.9 152.435 292.3 130.302C287.1 109.635 298.433 89.7688 320.433 81.3688C330.833 77.5021 335.767 73.3688 335.9 68.4355C335.9 66.7021 336.567 62.7021 337.367 59.7688L338.833 54.3021L340.967 58.5688C342.3 61.1021 342.967 64.7021 342.567 67.1021ZM224.433 69.3688C242.033 77.7688 239.9 110.302 220.7 129.902C212.7 138.035 206.033 142.169 212.3 135.102C214.567 132.569 217.5 129.102 218.967 127.369C221.633 124.302 221.5 124.302 216.433 127.769C207.233 134.035 198.7 135.235 190.567 131.635L185.633 129.502L193.9 128.435C204.967 127.102 210.967 124.035 213.5 118.569C216.433 112.435 216.167 101.635 212.967 95.2354C208.3 86.0355 210.433 79.3688 217.633 81.1021C222.033 82.1688 224.967 86.9688 226.167 94.8354L227.233 101.235L228.3 96.0355C230.033 87.6355 225.9 79.3688 218.033 75.5021C210.033 71.5021 203.9 72.5688 196.7 78.9688C193.9 81.5021 191.633 82.8354 191.633 82.1688C191.633 79.6355 200.033 70.9688 204.3 69.1021C209.767 66.7021 218.967 66.8354 224.433 69.3688ZM624.433 100.302C625.5 105.235 626.967 123.369 627.633 140.569C629.633 188.302 630.3 192.969 643.1 239.235C649.233 261.769 647.5 279.635 638.3 287.902C634.167 291.635 633.9 289.502 637.767 282.569C644.567 270.569 643.767 257.902 633.9 220.435C631.233 210.435 628.433 195.769 627.633 187.769C626.833 179.769 625.367 167.369 624.3 160.302C623.233 153.102 622.3 138.969 622.3 128.969C622.3 115.902 621.5 106.969 619.633 97.9021C618.167 90.9688 617.1 84.0355 617.1 82.5688C617.233 78.1688 622.3 90.4355 624.433 100.302ZM120.7 95.9021C124.567 97.6355 130.967 102.435 134.833 106.302C142.967 114.435 148.167 124.035 153.633 140.569C161.233 163.902 167.767 172.569 194.833 195.235C209.5 207.502 212.967 210.969 212.433 213.235C208.3 230.302 208.167 249.902 212.033 257.902C213.367 260.302 214.033 262.569 213.767 262.835C212.833 263.902 203.1 258.302 194.567 251.902C181.1 241.769 168.567 225.769 147.767 191.502C139.233 177.635 136.833 174.835 135.9 177.635C135.233 179.769 126.3 179.502 122.3 177.235C119.233 175.502 119.367 175.369 126.3 175.902C131.767 176.435 132.567 176.302 129.5 175.369C117.233 172.169 106.833 163.502 98.1666 149.235L93.9 142.302L83.5 140.835C64.0333 138.035 50.7 128.035 59.9 123.102C64.3 120.702 75.1 122.569 87.5 127.769C93.7666 130.435 98.9666 132.302 99.2333 132.035C99.5 131.769 97.9 130.035 95.7666 128.169C90.0333 123.369 77.9 119.102 67.5 118.302C59.3666 117.635 58.5666 117.769 56.5666 120.569C54.7 123.369 54.3 123.369 53.5 121.502C53.1 120.169 53.3666 117.502 54.1666 115.502C58.3 105.369 76.3 103.502 94.9666 111.102C100.833 113.502 106.567 115.902 107.633 116.302C111.5 117.769 106.167 112.569 100.433 109.235C91.5 104.035 79.1 101.369 72.0333 103.235C68.7 104.035 65.6333 104.302 65.2333 103.902C64.8333 103.502 66.3 101.235 68.5666 98.9688C75.9 91.6355 91.5 92.3021 111.767 100.569C116.833 102.702 120.967 104.169 120.967 103.769C120.967 103.369 116.833 101.102 111.633 98.7021C106.567 96.3021 102.833 93.9021 103.233 93.3688C105.1 91.5021 114.033 92.8354 120.7 95.9021ZM51.6333 114.569C51.6333 116.302 47.6333 122.835 45.6333 124.569C40.9666 128.435 42.3 122.035 47.3666 116.169C49.3666 114.035 51.6333 113.102 51.6333 114.569ZM51.3666 128.702C50.9666 131.502 40.3 140.302 38.9666 138.969C37.3666 137.369 41.2333 131.102 45.2333 128.569C50.8333 125.235 51.9 125.235 51.3666 128.702ZM227.1 141.369C226.033 144.969 224.433 150.569 223.633 153.769L222.033 159.635L216.167 153.235C209.633 146.169 209.633 145.902 212.033 145.902C212.833 145.902 216.967 143.235 220.967 140.035C224.967 136.835 228.433 134.435 228.567 134.569C228.833 134.702 228.167 137.769 227.1 141.369ZM59.6333 137.235C59.6333 137.502 56.8333 139.902 53.3666 142.569L46.9666 147.369L44.7 162.969C41.5 183.902 42.9666 193.102 50.7 201.502C52.1666 203.235 52.8333 204.569 52.0333 204.569C51.2333 204.569 49.9 203.635 48.9666 202.569C45.9 198.969 44.9666 200.435 44.9666 208.702C44.9666 213.235 43.3666 222.702 41.3666 230.302C38.3 241.635 37.7666 246.702 37.6333 260.835C37.6333 270.035 37.1 276.969 36.5666 276.169C34.3 272.835 37.3666 281.502 40.4333 286.835C42.1666 289.902 43.2333 293.369 42.8333 294.435C41.5 298.035 34.9666 292.169 30.7 283.502C27.2333 276.569 26.9666 274.702 27.1 261.902C27.2333 250.835 28.1666 243.502 32.0333 226.969C34.8333 215.369 36.9666 204.702 36.9666 203.235C36.9666 201.769 37.5 200.569 38.1666 200.569C38.8333 200.569 37.9 196.969 36.1666 192.702C31.2333 180.569 30.8333 174.702 34.3 162.569C38.5666 147.235 40.8333 143.102 46.9666 139.635C51.6333 136.969 59.6333 135.502 59.6333 137.235ZM199.367 149.369C206.033 152.169 210.967 156.969 216.567 166.569L221.233 174.569L218.833 184.569C217.5 190.035 216.033 194.969 215.633 195.635C214.433 197.102 191.5 181.502 185.9 175.369C183.233 172.302 180.967 168.702 180.967 167.235C180.967 163.769 188.033 155.902 192.967 153.902C195.233 152.969 196.833 151.902 196.433 151.635C195.233 150.302 184.967 154.169 179.9 157.902C176.833 160.169 174.3 161.369 174.3 160.702C174.3 158.702 180.033 152.302 184.167 149.769C189.233 146.702 192.833 146.569 199.367 149.369ZM403.1 162.835L407.633 167.769V191.502C407.633 205.635 407.1 215.235 406.433 215.235C404.433 215.235 398.967 207.502 393.767 197.235C388.7 187.369 387.367 176.702 390.3 171.102C391.9 168.169 391.233 167.902 387.9 170.035C386.3 171.102 384.567 170.969 381.633 169.902L377.633 168.302L384.3 165.235C388.033 163.635 392.167 161.235 393.633 160.035C397.367 157.102 398.033 157.369 403.1 162.835ZM291.767 163.769L300.567 168.169L296.167 170.169C292.3 171.902 291.633 171.902 289.633 170.035C287.767 168.035 287.633 168.569 288.433 175.502C289.1 181.235 288.7 185.102 286.567 192.169C283.9 200.435 274.033 217.902 271.9 217.902C271.367 217.902 271.1 206.702 271.367 192.969L271.767 167.902L275.9 163.635C278.3 161.235 280.833 159.235 281.5 159.235C282.3 159.235 286.967 161.235 291.767 163.769ZM94.0333 172.169C90.1666 179.635 88.4333 186.035 86.8333 198.435C85.7666 206.569 84.0333 216.169 82.8333 219.902C79.6333 230.035 75.3666 239.235 74.3 238.569C73.3666 238.035 72.4333 225.102 72.4333 213.902C72.4333 207.902 75.7666 190.302 78.4333 182.302C80.4333 176.302 85.9 171.235 90.5667 171.235C92.7 171.235 94.3 171.635 94.0333 172.169ZM68.3 179.235C65.2333 185.102 64.3 183.369 67.2333 177.235C68.5666 174.569 69.7666 172.969 70.0333 173.769C70.3 174.435 69.5 176.969 68.3 179.235ZM58.8333 195.102C56.7 197.102 56.7 196.969 57.6333 194.569C58.3 193.102 59.1 189.235 59.5 185.902L60.3 179.902L60.7 186.435C60.9666 191.235 60.5666 193.502 58.8333 195.102ZM361.233 184.035C372.7 189.769 377.633 199.769 376.7 214.969C376.3 219.902 375.367 225.635 374.567 227.635C373.233 230.835 372.7 231.102 370.167 229.902C368.167 228.835 369.1 230.569 373.233 236.035L378.967 243.635L378.7 289.102C378.567 332.435 378.433 334.969 375.633 342.302C371.767 352.702 363.233 362.969 354.967 367.235C346.7 371.369 333.633 371.902 326.167 368.169C313.633 361.902 303.9 348.435 301.1 333.235C300.433 329.502 299.633 308.302 299.367 285.902C298.967 240.835 298.567 243.369 308.167 232.702C312.567 227.902 312.833 227.102 310.033 228.969C308.033 230.169 306.033 231.235 305.767 231.235C303.767 231.235 300.7 215.502 301.367 209.102C302.967 193.235 311.1 184.035 325.233 181.902C335.767 180.169 356.167 181.369 361.233 184.035ZM559.9 185.369C571.5 189.235 580.7 207.102 581.9 227.902L582.567 239.902L579.767 236.569L576.967 233.235L579.767 240.569C590.7 268.569 595.233 290.035 593.633 305.235C592.3 316.702 586.967 332.569 582.3 338.969C573.5 351.235 559.233 357.502 543.767 356.169C529.233 354.969 529.5 355.369 537.9 341.502C542.033 334.702 547.767 324.302 550.7 318.302C555.633 307.902 555.9 306.435 556.033 294.969C556.167 281.635 554.567 276.169 548.3 268.835C543.367 262.969 537.233 259.502 528.167 257.502C520.7 255.769 520.3 255.502 519.1 250.702C518.167 247.369 518.3 242.169 519.233 235.369C520.967 223.502 529.1 197.769 532.833 192.035C538.567 183.502 547.767 181.102 559.9 185.369ZM123.5 189.635C130.433 196.835 138.033 208.702 141.9 218.302C144.433 224.435 145.5 229.769 146.033 239.502C146.833 255.369 146.033 258.435 141.1 260.435C135.233 262.969 128.833 269.769 125.233 277.769C122.3 284.302 122.033 286.035 122.7 296.969C123.633 310.435 126.7 318.169 140.167 340.435C144.567 347.769 147.233 353.502 146.567 354.169C145.9 354.835 140.833 355.769 135.367 356.169C121.233 357.235 112.567 354.435 103.1 345.769C90.3 334.169 84.7 317.369 84.5667 291.235C84.5667 268.969 89.1 252.969 99.2333 239.369C102.3 235.369 102.433 234.969 100.033 235.769C97.6333 236.569 97.1 235.635 95.1 228.569C92.4333 219.102 90.8333 203.635 92.1666 198.835C93.2333 194.569 99.2333 187.369 102.833 185.902C104.433 185.235 108.567 184.702 112.167 184.702C118.033 184.569 119.233 185.102 123.5 189.635ZM513.5 192.035C513.233 196.302 503.5 227.635 502.7 226.702C501.5 225.635 506.7 193.102 508.567 190.169C511.1 186.169 513.633 187.102 513.5 192.035ZM600.833 202.035C602.7 210.569 602.833 241.902 600.967 241.902C599.367 241.902 599.233 240.569 599.1 218.569C598.967 208.969 598.3 199.502 597.767 197.369C596.967 194.702 596.967 193.769 598.033 194.435C598.833 194.835 600.033 198.302 600.833 202.035ZM593.1 196.569C594.567 197.502 595.633 199.369 595.633 201.502V205.102L591.633 201.235C585.9 195.769 586.7 193.235 593.1 196.569ZM271.767 230.835C277.1 235.769 287.233 256.169 289.1 265.635C290.967 275.235 290.033 277.635 287.1 270.702C284.3 264.035 277.367 254.169 274.3 252.569C272.033 251.369 270.7 252.169 265.233 257.902C259.767 263.502 258.033 264.569 253.9 264.569C247.1 264.569 243.633 260.835 243.5 253.502V247.902L240.833 255.235C236.833 265.902 236.033 286.035 238.967 301.235C242.033 317.769 247.1 331.502 258.033 353.369C272.967 383.235 275.5 393.102 271.233 405.769C270.167 408.702 269.9 410.835 270.567 410.435C273.367 408.702 283.5 408.169 301.9 408.969C310.167 409.235 314.033 411.235 314.833 415.369C314.967 416.435 315.767 418.569 316.7 420.169C318.833 424.169 318.7 426.435 316.033 429.635C309.5 437.235 302.3 433.102 302.3 421.635C302.3 414.969 302.167 414.835 299.767 417.102C297.767 418.969 296.567 419.102 294.567 418.035C292.167 416.702 292.033 417.102 292.433 427.102C292.833 437.102 292.7 437.635 289.5 439.102C287.1 440.169 285.367 440.169 283.5 439.235C281.367 438.035 280.967 436.302 280.967 428.835C280.967 423.902 280.3 418.969 279.5 417.902C278.433 416.302 278.3 416.569 278.967 418.969C280.167 422.969 278.567 431.502 276.833 430.569C276.167 430.035 276.3 431.235 277.1 433.102C279.1 437.369 277.9 440.302 273.5 441.902C267.9 444.035 266.3 441.635 266.3 431.102C266.3 426.169 265.767 421.635 264.967 421.235C264.167 420.702 263.633 422.435 263.633 425.502C263.633 432.435 261.233 440.569 258.833 441.502C256.3 442.435 252.967 439.502 252.967 436.435C252.967 434.969 255.367 428.702 258.3 422.435C261.233 416.302 264.167 408.702 264.967 405.769C266.833 398.969 264.833 387.502 260.3 379.235C238.833 340.302 228.433 306.569 228.3 275.902C228.3 261.902 228.567 260.702 232.7 252.302C235.633 246.302 239.633 241.102 245.1 236.035C256.433 225.502 264.3 223.902 271.767 230.835ZM425.5 229.502C431.1 232.435 440.167 242.035 444.833 250.035C451.233 261.369 452.167 268.302 449.633 287.502C445.633 318.035 439.9 336.169 424.033 368.035C413.633 388.969 412.7 391.369 412.7 398.702C412.7 405.102 413.767 408.702 418.167 418.169C424.567 431.769 425.9 437.102 423.633 439.902C419.633 444.835 416.433 440.569 414.833 427.769C414.033 421.102 413.767 420.435 412.7 423.235C412.033 424.969 411.9 428.702 412.3 431.502C413.9 440.569 410.833 444.435 404.167 441.902C401.1 440.702 400.7 439.902 401.233 435.902C401.5 433.369 401.233 431.235 400.7 431.235C400.167 431.235 399.633 428.035 399.633 424.169C399.633 419.235 399.233 417.769 398.3 419.235C397.633 420.302 396.967 424.969 396.967 429.502C396.967 436.569 396.567 438.035 394.167 439.235C392.033 440.435 390.7 440.302 388.3 438.702C385.5 436.835 385.233 435.902 385.767 428.969C386.167 424.702 386.567 419.902 386.833 418.169C387.233 415.235 387.233 415.235 384.7 417.502C382.7 419.235 381.633 419.502 379.767 418.302C377.5 416.835 377.233 417.369 376.567 422.835C375.767 430.835 371.767 434.969 367.1 432.835C365.233 432.035 362.7 429.769 361.5 427.902C359.367 424.569 359.367 424.302 362.167 420.435C363.9 418.169 364.433 416.569 363.367 416.569C362.567 416.569 363.5 414.835 365.5 412.702C368.833 409.235 370.3 408.702 376.833 408.702C380.967 408.702 386.7 408.569 389.633 408.569C396.833 408.302 405.767 409.369 407.767 410.702C408.967 411.369 409.1 410.969 408.433 409.102C402.833 394.569 404.3 386.835 417.633 359.502C436.7 320.569 440.967 306.302 441.233 281.235C441.367 269.635 440.833 264.835 438.567 258.569C436.567 252.435 435.9 251.369 435.767 254.302C435.633 259.235 430.167 264.569 425.367 264.569C420.433 264.569 413.367 260.169 410.567 255.235C409.367 253.102 407.633 251.235 406.7 251.235C404.167 251.235 394.7 262.969 392.033 269.235C389.1 276.569 387.5 276.969 388.567 270.169C389.767 261.369 393.233 252.302 399.5 241.369C408.033 226.302 413.9 223.635 425.5 229.502ZM160.967 260.569C160.967 261.235 158.967 261.902 156.7 261.902C154.3 262.035 150.167 263.102 147.633 264.569L142.967 266.969L146.967 268.435C168.033 276.302 179.1 284.302 191.767 301.102C201.9 314.435 211.9 333.502 214.833 345.369C216.033 349.902 217.5 359.102 218.3 366.035C219.367 376.702 220.167 379.235 224.033 385.102C226.567 388.835 228.967 392.969 229.5 394.302C230.7 398.035 221.633 414.702 213.9 422.835C208.167 428.969 206.967 429.769 206.167 427.635C205.5 425.902 204.7 426.969 202.833 432.302C198.967 443.369 194.167 447.235 190.3 442.435C188.833 440.702 189.1 439.369 191.767 434.169C193.5 430.702 195.1 427.502 195.367 426.835C195.633 426.302 195.367 425.902 194.7 425.902C194.033 425.902 192.433 428.035 190.967 430.569C189.633 433.235 187.9 435.102 187.1 434.835C186.167 434.435 185.633 436.035 185.633 438.435C185.633 442.302 185.367 442.569 180.967 442.569C177.5 442.569 176.167 441.902 175.9 440.169C175.1 436.435 176.567 432.302 180.167 426.835C182.033 424.169 182.967 421.902 182.3 421.902C181.5 421.902 180.967 420.702 180.967 419.369C180.967 417.902 180.3 416.302 179.633 415.902C178.7 415.369 178.433 416.169 178.967 418.302C180.033 422.302 177.367 427.902 171.1 434.435C166.3 439.502 163.1 439.769 161.633 435.102C160.3 431.102 162.167 427.235 165.367 427.235C167.367 427.235 167.767 426.835 166.7 426.169C165.367 425.369 165.9 423.235 168.7 417.902C171.767 412.035 173.233 410.435 176.167 410.169C180.167 409.635 186.3 414.169 186.3 417.502C186.3 420.169 188.433 419.635 192.167 415.902C197.5 410.569 203.633 412.169 203.633 418.835C203.633 421.635 204.167 421.502 211.633 415.635C224.967 405.369 228.3 396.702 221.767 388.969C217.9 384.169 216.167 378.969 213.633 363.102C211.233 347.902 208.433 338.169 204.033 329.235C199.633 320.569 190.433 307.635 184.833 302.569C180.033 298.169 180.167 298.569 186.7 308.169C192.967 317.369 199.1 332.835 202.567 347.235C205.233 358.969 205.233 359.102 202.7 363.502C197.1 373.235 187.5 371.102 178.167 358.169C170.833 347.902 167.767 338.569 164.833 317.502C161.633 296.169 159.767 290.702 154.033 287.235C148.833 284.169 147.633 284.702 147.633 290.435C147.633 296.035 143.1 301.902 138.967 301.902C133.633 301.902 131.233 296.702 131.9 286.835L132.567 278.569L130.167 283.902C128.833 286.835 127.633 290.302 127.633 291.502C127.633 292.702 127.1 294.169 126.3 294.569C124.3 295.769 124.7 290.035 127.1 281.769C129.633 273.369 138.833 263.369 146.3 260.969C152.3 259.102 160.967 258.835 160.967 260.569ZM537.9 264.035C546.567 269.369 551.9 278.302 552.567 288.302L552.967 295.902L550.433 288.835C547.1 279.502 545.9 278.435 546.967 286.302C548.567 296.835 543.367 304.169 536.3 301.369C533.767 300.435 530.3 292.702 530.3 288.035C530.3 285.502 529.767 284.969 527.633 285.502C520.167 287.502 515.5 298.835 512.967 321.235C510.7 340.569 506.3 352.035 497.5 361.769C489.233 370.969 480.3 372.169 476.3 364.569C473.633 359.502 473.767 355.102 476.833 342.835C480.033 330.835 487.1 314.969 493.633 305.369L498.433 298.569L489.767 307.635C478.7 319.369 469.9 336.569 466.833 352.569C465.767 358.835 463.9 368.169 462.967 373.369C461.767 379.902 459.9 384.702 457.1 388.569C450.433 397.769 451.9 402.435 465.233 414.169L473.633 421.502L475.633 417.369C478.3 411.902 480.967 411.635 486.3 416.169C489.767 418.969 490.967 419.369 491.367 417.902C493.367 411.902 501.5 408.169 506.167 411.102C507.9 412.302 511.5 420.435 512.033 424.569C512.167 425.635 513.367 426.969 514.7 427.502C517.633 428.702 517.767 435.635 514.967 437.902C513.233 439.369 512.167 438.969 508.833 435.769C502.567 429.769 499.233 423.635 499.9 419.235C500.7 414.302 500.3 414.302 497.9 418.702C496.3 421.769 496.433 422.835 500.167 430.035C503.5 436.169 504.033 438.302 502.833 440.169C499.767 445.235 490.7 442.969 492.167 437.502C492.433 436.169 492.433 435.369 492.033 435.769C490.833 436.969 486.3 429.769 486.3 426.835C486.3 425.502 485.767 424.835 484.967 425.235C484.3 425.635 483.633 425.235 483.5 424.302C483.5 423.102 483.233 423.102 482.833 424.169C482.433 424.969 484.033 428.969 486.3 432.969C490.033 439.635 490.167 440.435 488.3 442.435C483.9 446.835 479.633 443.769 476.167 433.502C473.9 426.969 471.367 423.769 472.567 428.835C472.967 431.102 471.367 430.035 466.033 424.435C458.833 417.102 448.967 400.302 448.967 395.635C448.967 394.302 451.1 389.902 453.767 386.035C458.167 379.635 458.833 377.102 460.567 364.702C463.633 340.569 468.033 328.969 481.633 308.569C492.567 292.035 504.3 281.102 518.433 274.035C524.433 270.969 530.033 268.569 531.1 268.569C532.033 268.569 533.233 267.902 533.633 267.235C534.7 265.502 526.3 261.902 520.967 261.902C518.3 261.902 517.1 261.369 517.767 260.435C519.367 257.769 531.1 259.902 537.9 264.035ZM64.7 279.235C58.7 282.435 57.5 284.169 61.3666 284.035C65.7666 283.902 68.8333 293.102 66.1666 298.569C65.1 300.702 62.7 303.369 60.7 304.435C57.5 306.302 56.9666 306.302 54.4333 304.035C52.8333 302.569 51.5 299.902 51.5 298.035C51.2333 294.569 51.2333 294.569 50.7 297.769C49.7666 302.835 54.0333 318.835 59.7666 331.235C63.2333 338.569 70.5666 349.635 80.3 362.569C98.9666 387.235 100.167 390.302 94.9666 403.902C92.9666 409.102 91.1 414.569 90.7 416.169C90.3 417.902 89.3666 419.235 88.7 419.235C87.9 419.235 87.6333 421.102 87.9 423.502C88.3 425.902 88.3 428.702 88.0333 429.502C87.2333 431.635 84.1666 431.769 82.9666 429.902C81.9 428.169 85.3666 417.369 90.7 405.502L94.7 396.569L92.1666 390.969C90.8333 387.769 83.3666 376.569 75.9 365.902C58.8333 342.035 52.0333 330.569 47.9 318.702C44.1666 307.902 44.3 297.769 48.3 289.369C51.1 283.502 60.9666 276.569 66.1666 276.569C69.3666 276.702 69.2333 276.835 64.7 279.235ZM622.3 280.435C631.1 286.835 635.367 298.435 633.1 309.902C631.1 320.435 618.7 344.169 606.3 361.235C582.967 393.235 582.433 394.435 587.9 404.969C592.167 413.369 596.7 428.169 595.5 430.035C594.967 430.969 593.5 431.235 592.3 430.702C590.567 430.035 590.167 428.702 590.567 424.569C590.833 421.635 590.7 419.235 590.167 419.235C588.567 419.235 580.967 397.635 580.967 393.102C580.967 386.435 584.433 380.035 597.233 363.769C610.167 347.102 617.1 336.169 621.767 324.302C625.233 315.902 629.5 296.702 628.3 295.502C627.9 295.102 627.233 296.702 626.833 299.102C625.367 306.169 620.033 307.769 614.967 302.569C609.5 297.235 611.367 283.235 617.5 283.235C619.767 283.102 619.1 282.435 614.967 279.769L609.633 276.302L614.3 277.102C616.833 277.635 620.433 278.969 622.3 280.435ZM252.967 387.902C252.033 388.969 250.7 389.902 249.9 389.902C249.233 389.902 249.633 388.702 250.967 387.235C253.767 384.169 255.633 384.702 252.967 387.902ZM156.967 398.035C159.767 398.835 159.5 398.969 154.967 399.102C152.033 399.102 147.9 398.302 145.633 397.235C141.633 395.369 141.633 395.369 147.633 396.169C150.967 396.569 155.1 397.502 156.967 398.035ZM534.967 396.569C534.033 398.169 526.3 399.635 522.167 398.969C520.033 398.569 521.233 398.035 526.3 396.969C536.167 395.102 535.9 395.102 534.967 396.569ZM140.967 399.769C140.967 400.035 139.367 403.102 137.367 406.702C133.1 414.702 129.367 418.969 124.833 421.369C121.633 422.969 121.1 422.835 118.967 420.569C117.1 418.435 116.967 417.369 118.3 413.369C120.033 407.769 123.367 405.502 126.567 407.369C128.433 408.435 128.567 409.369 127.5 412.302C126.7 414.169 125.367 416.302 124.567 416.835C123.367 417.635 123.367 417.902 124.567 417.902C126.567 417.902 132.433 410.835 135.767 404.435C137.233 401.502 138.967 399.235 139.633 399.235C140.433 399.235 140.967 399.502 140.967 399.769ZM544.3 406.569C546.433 410.702 549.767 414.969 551.5 416.169C554.7 418.169 554.7 418.169 552.433 415.102C548.567 409.502 550.3 405.502 555.9 406.969C558.567 407.635 561.767 416.569 560.567 419.769C559.367 422.702 554.033 422.435 549.767 419.102C546.833 416.835 538.3 402.569 538.3 399.902C538.3 397.369 540.833 400.302 544.3 406.569ZM111.5 406.969C113.233 410.169 111.233 418.702 108.967 418.169C107.5 417.769 107.5 418.169 108.833 419.769C110.3 421.502 110.167 422.435 108.433 425.235C105.9 429.235 101.5 429.635 100.3 426.035C99.9 424.702 100.167 420.702 100.967 417.369C101.767 413.902 102.033 410.435 101.5 409.769C100.3 407.769 103.633 404.569 107.1 404.569C108.833 404.569 110.833 405.635 111.5 406.969ZM575.1 405.635C576.033 406.169 577.1 411.235 577.633 416.835C578.433 425.902 578.3 427.369 576.3 428.035C575.1 428.569 573.233 428.035 571.9 426.702C569.633 424.435 566.3 414.969 566.3 410.435C566.3 405.635 571.1 402.969 575.1 405.635ZM99.6333 411.902C99.6333 413.635 98.7 415.902 97.6333 416.969C96.5667 418.035 95.9 419.102 96.1666 419.369C96.4333 419.635 96.9666 422.435 97.3666 425.502C98.1666 432.169 95.7666 433.369 92.1666 427.902C89.9 424.302 90.4333 419.235 94.0333 411.635C96.3 406.969 99.6333 407.102 99.6333 411.902ZM584.967 412.835C589.1 422.035 588.033 431.235 582.833 431.235C581.767 431.235 581.367 429.102 581.633 424.569C581.767 420.835 581.5 417.902 580.967 417.902C579.1 417.902 578.167 410.969 579.767 409.102C581.9 406.435 582.167 406.569 584.967 412.835ZM165.633 414.035C167.233 416.435 160.833 421.902 156.433 422.035C153.233 422.169 152.967 422.435 155.367 422.835C159.633 423.635 158.967 425.902 154.433 425.902C147.233 425.902 148.433 417.769 156.3 412.569C160.167 410.035 163.633 410.569 165.633 414.035ZM525.633 415.369C530.033 420.702 529.633 425.102 524.7 425.635C520.567 426.169 519.5 423.769 523.367 422.835C524.833 422.435 524.567 422.169 522.3 422.035C518.3 421.902 512.967 418.435 512.967 416.035C512.967 415.235 513.633 413.769 514.567 412.835C517.367 410.035 521.9 411.102 525.633 415.369Z" fill="black"/>
</mask>
<g mask="url(#mask0_313_45)">
<rect width="679" height="507" fill="white"/>
</g>
</svg>
